HIERARCHY
ROOT hip
{
	OFFSET 0.000000 0.000000 0.000000 
	CHANNELS 6 Xposition Yposition Zposition Zrotation Xrotation Yrotation
	JOINT abdomen
	{
		OFFSET 0.000000 3.402643 0.000000 
		CHANNELS 3 Zrotation Xrotation Yrotation
		JOINT chest
		{
			OFFSET 0.000000 8.438565 -0.680529 
			CHANNELS 3 Zrotation Xrotation Yrotation
			JOINT neck
			{
				OFFSET 0.000000 10.207942 -0.272212 
				CHANNELS 3 Zrotation Xrotation Yrotation
				JOINT head
				{
					OFFSET 0.000000 3.130431 0.000000 
					CHANNELS 3 Zrotation Xrotation Yrotation
					End Site
					{
						OFFSET 0.000000 3.130435 0.000000 
					}
				}
			}
			JOINT lCollar
			{
				OFFSET 3.470700 6.669187 -0.816635 
				CHANNELS 3 Zrotation Xrotation Yrotation
				JOINT lShldr
				{
					OFFSET 3.198488 0.000000 0.000000 
					CHANNELS 3 Zrotation Xrotation Yrotation
					JOINT lForeArm
					{
						OFFSET 10.139888 0.000000 0.000000 
						CHANNELS 3 Zrotation Xrotation Yrotation
						JOINT lHand
						{
							OFFSET 8.370511 0.000000 0.000000 
							CHANNELS 3 Zrotation Xrotation Yrotation
							End Site
							{
								OFFSET 4.083176 0.000000 0.000000 
							}
						}
					}
				}
			}
			JOINT rCollar
			{
				OFFSET -3.470700 6.669187 -0.816635 
				CHANNELS 3 Zrotation Xrotation Yrotation
				JOINT rShldr
				{
					OFFSET -3.198488 0.000000 0.000000 
					CHANNELS 3 Zrotation Xrotation Yrotation
					JOINT rForeArm
					{
						OFFSET -10.139888 0.000000 0.000000 
						CHANNELS 3 Zrotation Xrotation Yrotation
						JOINT rHand
						{
							OFFSET -8.370511 0.000000 0.000000 
							CHANNELS 3 Zrotation Xrotation Yrotation
							End Site
							{
								OFFSET -4.083176 0.000000 0.000000 
							}
						}
					}
				}
			}
		}
	}
	JOINT lThigh
	{
		OFFSET 5.308129 -1.633274 1.361059 
		CHANNELS 3 Zrotation Xrotation Yrotation
		JOINT lShin
		{
			OFFSET -2.041588 -20.007561 0.000000 
			CHANNELS 3 Zrotation Xrotation Yrotation
			JOINT lFoot
			{
				OFFSET 0.000000 -19.190928 -1.224953 
				CHANNELS 3 Zrotation Xrotation Yrotation
				End Site
				{
					OFFSET 0.000000 -2.449906 4.627600 
				}
			}
		}
	}
	JOINT rThigh
	{
		OFFSET -5.308129 -1.633274 1.361059 
		CHANNELS 3 Zrotation Xrotation Yrotation
		JOINT rShin
		{
			OFFSET 2.041588 -20.007561 0.000000 
			CHANNELS 3 Zrotation Xrotation Yrotation
			JOINT rFoot
			{
				OFFSET 0.000000 -19.190928 -1.224953 
				CHANNELS 3 Zrotation Xrotation Yrotation
				End Site
				{
					OFFSET 0.000000 -2.449906 4.627600 
				}
			}
		}
	}
}
MOTION
Frames: 10
Frame Time: 0.033333
-0.001381 48.053219 0.313914 -0.166016 0.009760 1.230497 -1.025398 -0.205044 5.543026 -2.636719 -0.029264 2.986933 -0.000000 -0.000004 1.289063 -1.213604 3.797978 8.078238 -5.199613 -0.248127 1.983994 -70.575951 16.060190 9.484719 -9.403782 3.844559 -18.458612 7.106372 -0.494419 -3.184613 5.727255 -0.246749 -2.069691 72.901413 15.725822 -10.626733 8.441255 3.503829 18.627136 -6.356094 -2.274810 4.564718 3.779112 -7.545371 0.889199 -3.051495 15.092479 -0.430063 -0.869579 -7.906522 -0.476122 -4.111911 -7.069431 -0.959596 2.894185 14.695704 0.136773 0.870668 -8.144138 -2.583215 
-0.003471 48.113190 0.347616 -0.371094 0.019535 2.705205 -2.265682 -0.409835 12.337298 -5.849612 -0.058292 6.663950 0.000000 -0.000002 2.861328 -2.685272 8.428368 18.147778 -4.497100 -0.217195 2.015261 -67.687386 16.444044 8.402675 -10.377267 4.129578 -17.722488 8.167662 -0.976742 -2.943617 5.866471 -0.181609 -2.146897 73.049492 15.693968 -11.071979 8.613755 3.523338 17.980721 -6.327935 -5.362982 6.374352 4.067182 -7.499542 0.657347 -3.117703 14.630775 -0.113207 -0.894052 -7.604176 -2.009717 -3.771051 -6.445962 -0.528384 2.894932 13.693273 -0.285673 0.911998 -7.747612 -4.029253 
-0.003993 48.128120 0.356006 -0.537109 0.058572 4.277804 -3.496418 -0.779791 18.926960 -9.013678 -0.077156 10.192836 -0.000000 -0.000003 4.472656 -4.269655 12.992418 28.393244 -3.668347 -0.163704 2.095302 -64.763962 16.821823 7.347269 -11.332186 4.396550 -16.887636 9.050982 -1.465764 -2.688441 6.075239 -0.093300 -2.243200 73.338814 15.634546 -11.657749 9.040991 3.645299 17.213926 -5.805295 -9.036748 8.571614 4.302876 -7.706425 0.788220 -3.138806 14.616400 -0.109683 -1.152667 -7.405560 -3.670886 -3.504911 -6.109042 -0.844496 2.849624 13.274100 -0.012188 0.731049 -7.723618 -5.520230 
0.000000 48.013634 0.291666 -0.595705 0.136691 5.919401 -4.552510 -1.577040 24.122490 -11.621106 -0.086089 12.833861 -0.000000 -0.000002 5.996094 -5.895558 16.751894 37.299515 -2.810083 -0.117070 2.184870 -62.162521 17.123692 6.490021 -12.145682 4.586987 -15.914083 9.962614 -1.969540 -2.425771 6.294565 0.005715 -2.339351 73.627739 15.563582 -12.252728 9.479623 3.767394 16.428005 -4.896323 -13.079441 10.945917 4.414387 -8.663787 0.898853 -3.216922 15.855898 -0.150211 -1.141171 -7.754111 -5.255475 -3.486537 -6.621427 -0.874755 2.893781 14.432746 -0.032222 0.715712 -8.470045 -7.148353 
0.009850 47.702076 0.113339 -0.468756 0.283190 7.599971 -5.299813 -2.907460 27.024429 -13.300786 -0.057020 14.078315 -0.000000 0.000000 7.314455 -7.425004 19.156590 43.581570 -2.030110 -0.068795 2.225163 -60.158878 17.305029 5.964247 -12.686816 4.697109 -14.801455 11.133772 -2.494577 -2.148767 6.454403 0.076173 -2.435678 73.800194 15.525081 -12.758070 9.698185 3.778781 15.703938 -3.826693 -17.270866 13.264014 4.339755 -10.676005 1.128411 -3.372771 18.974977 -0.230995 -1.052076 -8.946668 -6.950415 -3.826608 -8.391366 -0.827479 3.169638 17.894804 -0.190770 0.617089 -10.270831 -8.847929 
0.020506 47.192577 -0.195618 -0.224616 0.468751 9.220590 -5.787642 -4.275052 28.014364 -14.208984 -0.018926 14.165128 0.000000 -0.000004 8.408203 -8.766254 20.210442 47.198418 -1.395483 -0.052813 2.167325 -58.713104 17.371527 5.649066 -12.969831 4.726279 -13.788379 12.805234 -3.088240 -1.911067 6.504914 0.105380 -2.493665 73.712646 15.507750 -13.051432 9.442064 3.633098 15.141725 -2.913826 -21.421972 15.281503 4.140429 -13.665476 1.342653 -3.850158 23.702072 -0.154340 -0.568465 -10.831334 -8.522222 -4.355572 -11.538410 -1.558364 3.472104 23.514164 0.122071 0.392291 -12.862088 -10.337612 
0.025324 46.500977 -0.645694 0.048831 0.654299 10.702573 -6.097789 -5.030119 27.822714 -14.658207 0.037791 13.535278 0.000001 -0.000006 9.316407 -9.820333 20.067677 48.477169 -1.033187 -0.074844 1.982103 -57.709324 17.371351 5.331729 -13.076537 4.717529 -13.135878 15.175677 -3.755005 -1.685209 6.375550 0.050230 -2.513690 73.230400 15.556522 -13.034263 8.460100 3.246887 14.826368 -2.589988 -25.424807 16.678205 3.906861 -17.375647 1.655499 -4.254477 29.500095 -0.175176 -0.136111 -13.024327 -9.814237 -5.161939 -15.322827 -2.113394 3.944352 30.225693 0.070879 0.233588 -15.885889 -11.618333 
0.017655 45.643105 -1.247373 0.292998 0.810515 11.939213 -6.298828 -4.504007 27.178082 -14.931661 0.103797 12.635101 0.000000 -0.000002 10.029299 -10.502067 18.871691 47.755817 -1.011627 -0.155629 1.620849 -57.019531 17.315619 4.838928 -13.064484 4.677667 -13.148553 18.488506 -4.502926 -1.503121 6.026853 -0.097506 -2.486189 72.231293 15.688724 -12.575338 6.522342 2.537005 14.841328 -3.399792 -29.157127 17.089069 3.749326 -21.613283 2.011560 -4.776314 35.881653 -0.120327 0.348536 -15.210209 -10.772749 -6.070450 -19.518616 -2.440187 4.578856 37.264782 -0.154949 0.172746 -18.791698 -12.910802 
-0.009148 44.634804 -2.011144 0.400439 0.888646 12.845421 -6.478801 -2.057101 26.796591 -15.341851 0.160103 11.896813 -0.000000 -0.000002 10.566406 -10.806862 16.775108 45.477581 -1.449960 -0.299180 1.025073 -56.528198 17.226706 3.967298 -13.008423 4.604254 -14.091701 22.954182 -5.352920 -1.357661 5.389519 -0.373301 -2.391723 70.568146 15.905442 -11.582007 3.392727 1.383177 15.231726 -5.999223 -32.529427 16.031006 3.761921 -26.090618 2.377091 -5.446451 42.447952 0.099342 0.975451 -17.366503 -11.349179 -7.077848 -23.789564 -3.189532 5.196722 44.397556 -0.431037 0.179084 -21.634249 -13.499915 
-0.060920 43.491199 -2.927219 0.332070 0.878877 13.344504 -6.755504 2.686321 27.251682 -16.103621 0.206412 11.661152 -0.000000 -0.000002 10.947267 -10.687811 13.904916 42.077488 -2.381140 -0.495995 0.195151 -56.145046 17.112785 2.595451 -12.969117 4.500798 -16.077656 28.581381 -6.271238 -1.182755 4.454948 -0.798498 -2.210230 68.135338 16.229313 -9.971486 -0.998237 -0.330238 15.994415 -10.673748 -35.335342 13.258919 4.038446 -30.604319 2.909655 -6.130512 48.614452 0.370013 1.434134 -18.953625 -11.604387 -7.821600 -28.261024 -4.405918 5.931263 50.956203 -0.576498 -0.171422 -23.656424 -13.786322 
